<svg width="28" height="28" viewBox="0 0 28 28" fill="none" xmlns="http://www.w3.org/2000/svg">
<g filter="url(#filter0_d_543_19)">
<path d="M14.0022 4.87225C11.169 4.86333 8.8667 7.1572 8.85778 9.99108C8.84886 12.8249 11.1422 15.1277 13.9755 15.1367C16.8087 15.1456 19.111 12.8517 19.1199 10.0179C19.1288 7.18398 16.8355 4.88118 14.0022 4.87225ZM13.9755 6.67522C15.8137 6.6663 17.3084 8.15241 17.3173 9.99108C17.3263 11.8297 15.8405 13.3248 14.0022 13.3337C12.164 13.3426 10.6693 11.8565 10.6603 10.0179C10.6514 8.17918 12.1372 6.68415 13.9755 6.67522ZM18.1428 4.6625C18.1428 4.00201 18.6782 3.46647 19.3385 3.46647C19.9989 3.46647 20.5343 4.00201 20.5343 4.6625C20.5343 5.32299 19.9989 5.85853 19.3385 5.85853C18.6782 5.85853 18.1428 5.32299 18.1428 4.6625ZM23.9297 5.87638C23.8539 4.27424 23.488 2.85507 22.3146 1.68582C21.1456 0.516568 19.7267 0.150619 18.1249 0.070289C16.4741 -0.0234297 11.5259 -0.0234297 9.87507 0.070289C8.27775 0.146156 6.8589 0.512105 5.68544 1.68136C4.51199 2.85061 4.15059 4.26978 4.07027 5.87192C3.97658 7.52315 3.97658 12.4724 4.07027 14.1236C4.14612 15.7258 4.51199 17.1449 5.68544 18.3142C6.8589 19.4834 8.27329 19.8494 9.87507 19.9297C11.5259 20.0234 16.4741 20.0234 18.1249 19.9297C19.7267 19.8538 21.1456 19.4879 22.3146 18.3142C23.4835 17.1449 23.8494 15.7258 23.9297 14.1236C24.0234 12.4724 24.0234 7.52761 23.9297 5.87638ZM21.797 15.8953C21.449 16.7701 20.7752 17.4439 19.8963 17.7965C18.58 18.3186 15.4568 18.1981 14.0022 18.1981C12.5477 18.1981 9.41997 18.3142 8.1082 17.7965C7.23369 17.4484 6.55996 16.7745 6.20747 15.8953C5.68544 14.5788 5.80591 11.4549 5.80591 10C5.80591 8.54513 5.68991 5.41671 6.20747 4.10465C6.55549 3.22995 7.22922 2.55606 8.1082 2.2035C9.42443 1.68136 12.5477 1.80185 14.0022 1.80185C15.4568 1.80185 18.5845 1.68582 19.8963 2.2035C20.7708 2.5516 21.4445 3.22548 21.797 4.10465C22.319 5.42118 22.1986 8.54513 22.1986 10C22.1986 11.4549 22.319 14.5833 21.797 15.8953Z" fill="#D4A017"/>
</g>
<defs>
<filter id="filter0_d_543_19" x="0" y="0" width="28" height="28" filterUnits="userSpaceOnUse" color-interpolation-filters="sRGB">
<feFlood flood-opacity="0" result="BackgroundImageFix"/>
<feColorMatrix in="SourceAlpha" type="matrix" values="0 0 0 0 0 0 0 0 0 0 0 0 0 0 0 0 0 0 127 0" result="hardAlpha"/>
<feOffset dy="4"/>
<feGaussianBlur stdDeviation="2"/>
<feComposite in2="hardAlpha" operator="out"/>
<feColorMatrix type="matrix" values="0 0 0 0 0 0 0 0 0 0 0 0 0 0 0 0 0 0 0.25 0"/>
<feBlend mode="normal" in2="BackgroundImageFix" result="effect1_dropShadow_543_19"/>
<feBlend mode="normal" in="SourceGraphic" in2="effect1_dropShadow_543_19" result="shape"/>
</filter>
</defs>
</svg>
