<svg width="28" height="28" viewBox="0 0 28 28" fill="none" xmlns="http://www.w3.org/2000/svg">
<g filter="url(#filter0_d_130_7)">
<path d="M21.0045 2.90625C19.1339 1.03125 16.6429 0 13.9955 0C8.53125 0 4.08482 4.44643 4.08482 9.91071C4.08482 11.6562 4.54018 13.3616 5.40625 14.8661L4 20L9.25446 18.6205C10.7009 19.4107 12.3304 19.8259 13.9911 19.8259H13.9955C19.4554 19.8259 24 15.3795 24 9.91518C24 7.26786 22.875 4.78125 21.0045 2.90625ZM13.9955 18.1562C12.5134 18.1562 11.0625 17.7589 9.79911 17.0089L9.5 16.8304L6.38393 17.6473L7.21429 14.6071L7.01786 14.2946C6.19196 12.9821 5.75893 11.4688 5.75893 9.91071C5.75893 5.37054 9.45536 1.67411 14 1.67411C16.2009 1.67411 18.2679 2.53125 19.8214 4.08929C21.375 5.64732 22.3304 7.71429 22.3259 9.91518C22.3259 14.4598 18.5357 18.1562 13.9955 18.1562ZM18.5134 11.9866C18.2679 11.8616 17.0491 11.2634 16.8214 11.183C16.5938 11.0982 16.4286 11.058 16.2634 11.308C16.0982 11.558 15.625 12.1116 15.4777 12.2812C15.3348 12.4464 15.1875 12.4687 14.942 12.3437C13.4866 11.6161 12.5312 11.0446 11.5714 9.39732C11.317 8.95982 11.8259 8.99107 12.2991 8.04464C12.3795 7.87947 12.3393 7.73661 12.2768 7.61161C12.2143 7.48661 11.7187 6.26786 11.5134 5.77232C11.3125 5.29018 11.1071 5.35714 10.9554 5.34821C10.8125 5.33929 10.6473 5.33929 10.4821 5.33929C10.317 5.33929 10.0491 5.40179 9.82143 5.64732C9.59375 5.89732 8.95536 6.49554 8.95536 7.71429C8.95536 8.93303 9.84375 10.1116 9.96429 10.2768C10.0893 10.442 11.7098 12.942 14.1964 14.0179C15.7679 14.6964 16.3839 14.7545 17.1696 14.6384C17.6473 14.567 18.6339 14.0402 18.8393 13.4598C19.0446 12.8795 19.0446 12.3839 18.9821 12.2812C18.9241 12.1696 18.7589 12.1071 18.5134 11.9866Z" fill="black"/>
<path d="M13.9951 0.5C16.5099 0.5 18.8738 1.47898 20.6504 3.25977C22.4363 5.05001 23.5 7.41247 23.5 9.91504C23.5 15.0969 19.1851 19.3262 13.9951 19.3262H13.9912C12.4138 19.3262 10.8666 18.9314 9.49414 18.1816L9.31934 18.0869L9.12793 18.1367L4.71094 19.2959L5.88867 14.998L5.94336 14.7969L5.83984 14.6162C5.01776 13.1881 4.58503 11.5692 4.58496 9.91113C4.58496 4.72313 8.80716 0.500227 13.9951 0.5ZM14 1.17383C9.17939 1.17383 5.25879 5.09464 5.25879 9.91113C5.25887 11.5622 5.7183 13.1676 6.59473 14.5605L6.67383 14.6875L5.90137 17.5156L5.67383 18.3506L6.51074 18.1309L9.42383 17.3672L9.54297 17.4385H9.54395C10.885 18.2346 12.4239 18.6562 13.9951 18.6562C18.6539 18.6562 22.5739 14.984 22.8145 10.3652L22.8262 9.91504C22.8306 7.5664 21.8111 5.37643 20.1758 3.73633C18.5283 2.08411 16.3336 1.17383 14 1.17383ZM10.4824 5.83887C10.6516 5.83887 10.7998 5.83992 10.9238 5.84766H10.9258C10.9509 5.84913 10.9757 5.84857 10.9941 5.84863C10.9967 5.85286 11 5.85718 11.0029 5.8623L11.0518 5.96484C11.1543 6.21231 11.3283 6.63754 11.4863 7.02148C11.6371 7.38773 11.7868 7.75024 11.8291 7.83496C11.8318 7.84032 11.8341 7.84548 11.8359 7.84961C11.642 8.22745 11.4544 8.40202 11.2969 8.57031C11.2278 8.64408 11.0831 8.79544 11.0273 9.00684C10.9605 9.26069 11.0429 9.48203 11.1396 9.64844V9.64941C11.6453 10.5171 12.162 11.1205 12.7559 11.6035C13.3415 12.0797 13.9863 12.4237 14.7148 12.7881V12.7891C14.8733 12.8697 15.0792 12.9465 15.3096 12.918C15.5588 12.887 15.7344 12.7471 15.8545 12.6084L15.8555 12.6094C15.9844 12.4609 16.4217 11.946 16.6338 11.6465C16.6379 11.648 16.6421 11.6497 16.6465 11.6514L16.6553 11.6543C16.7364 11.683 17.0649 11.8363 17.4434 12.0186C17.8056 12.193 18.1679 12.3725 18.2861 12.4326L18.293 12.4355C18.3557 12.4664 18.4203 12.4971 18.4648 12.5186C18.4838 12.5277 18.5 12.5366 18.5146 12.5439C18.5142 12.5734 18.5161 12.6084 18.5127 12.6484C18.4984 12.8157 18.4565 13.0434 18.3682 13.293C18.323 13.4206 18.1453 13.6213 17.8369 13.8193C17.6146 13.962 17.3907 14.0606 17.2314 14.1104L17.0957 14.1436C16.743 14.1956 16.4505 14.2067 16.0703 14.1348C15.6754 14.0601 15.1679 13.8925 14.3945 13.5586C12.0554 12.5463 10.5164 10.1782 10.3623 9.97461C10.2955 9.88345 10.0715 9.58036 9.86035 9.16406C9.63935 8.7282 9.45508 8.21051 9.45508 7.71387C9.45522 6.70787 9.96098 6.23639 10.1885 5.9873C10.3063 5.86037 10.4324 5.83887 10.4824 5.83887Z" stroke="black"/>
</g>
<defs>
<filter id="filter0_d_130_7" x="0" y="0" width="28" height="28" filterUnits="userSpaceOnUse" color-interpolation-filters="sRGB">
<feFlood flood-opacity="0" result="BackgroundImageFix"/>
<feColorMatrix in="SourceAlpha" type="matrix" values="0 0 0 0 0 0 0 0 0 0 0 0 0 0 0 0 0 0 127 0" result="hardAlpha"/>
<feOffset dy="4"/>
<feGaussianBlur stdDeviation="2"/>
<feComposite in2="hardAlpha" operator="out"/>
<feColorMatrix type="matrix" values="0 0 0 0 0 0 0 0 0 0 0 0 0 0 0 0 0 0 0.25 0"/>
<feBlend mode="normal" in2="BackgroundImageFix" result="effect1_dropShadow_130_7"/>
<feBlend mode="normal" in="SourceGraphic" in2="effect1_dropShadow_130_7" result="shape"/>
</filter>
</defs>
</svg>
