<svg width="28" height="28" viewBox="0 0 28 28" fill="none" xmlns="http://www.w3.org/2000/svg">
<g filter="url(#filter0_d_543_20)">
<path d="M21.0045 2.90625C19.1339 1.03125 16.6429 0 13.9955 0C8.53125 0 4.08482 4.44643 4.08482 9.91071C4.08482 11.6562 4.54018 13.3616 5.40625 14.8661L4 20L9.25446 18.6205C10.7009 19.4107 12.3304 19.8259 13.9911 19.8259H13.9955C19.4554 19.8259 24 15.3795 24 9.91518C24 7.26786 22.875 4.78125 21.0045 2.90625ZM13.9955 18.1562C12.5134 18.1562 11.0625 17.7589 9.79911 17.0089L9.5 16.8304L6.38393 17.6473L7.21429 14.6071L7.01786 14.2946C6.19196 12.9821 5.75893 11.4688 5.75893 9.91071C5.75893 5.37054 9.45536 1.67411 14 1.67411C16.2009 1.67411 18.2679 2.53125 19.8214 4.08929C21.375 5.64732 22.3304 7.71429 22.3259 9.91518C22.3259 14.4598 18.5357 18.1562 13.9955 18.1562ZM18.5134 11.9866C18.2679 11.8616 17.0491 11.2634 16.8214 11.183C16.5938 11.0982 16.4286 11.058 16.2634 11.308C16.0982 11.558 15.625 12.1116 15.4777 12.2812C15.3348 12.4464 15.1875 12.4687 14.942 12.3437C13.4866 11.6161 12.5312 11.0446 11.5714 9.39732C11.317 8.95982 11.8259 8.99107 12.2991 8.04464C12.3795 7.87947 12.3393 7.73661 12.2768 7.61161C12.2143 7.48661 11.7187 6.26786 11.5134 5.77232C11.3125 5.29018 11.1071 5.35714 10.9554 5.34821C10.8125 5.33929 10.6473 5.33929 10.4821 5.33929C10.317 5.33929 10.0491 5.40179 9.82143 5.64732C9.59375 5.89732 8.95536 6.49554 8.95536 7.71429C8.95536 8.93303 9.84375 10.1116 9.96429 10.2768C10.0893 10.442 11.7098 12.942 14.1964 14.0179C15.7679 14.6964 16.3839 14.7545 17.1696 14.6384C17.6473 14.567 18.6339 14.0402 18.8393 13.4598C19.0446 12.8795 19.0446 12.3839 18.9821 12.2812C18.9241 12.1696 18.7589 12.1071 18.5134 11.9866Z" fill="#D4A017"/>
</g>
<defs>
<filter id="filter0_d_543_20" x="0" y="0" width="28" height="28" filterUnits="userSpaceOnUse" color-interpolation-filters="sRGB">
<feFlood flood-opacity="0" result="BackgroundImageFix"/>
<feColorMatrix in="SourceAlpha" type="matrix" values="0 0 0 0 0 0 0 0 0 0 0 0 0 0 0 0 0 0 127 0" result="hardAlpha"/>
<feOffset dy="4"/>
<feGaussianBlur stdDeviation="2"/>
<feComposite in2="hardAlpha" operator="out"/>
<feColorMatrix type="matrix" values="0 0 0 0 0 0 0 0 0 0 0 0 0 0 0 0 0 0 0.25 0"/>
<feBlend mode="normal" in2="BackgroundImageFix" result="effect1_dropShadow_543_20"/>
<feBlend mode="normal" in="SourceGraphic" in2="effect1_dropShadow_543_20" result="shape"/>
</filter>
</defs>
</svg>
